<svg id="visual" viewBox="0 0 1920 1080" width="1920" height="1080" xmlns="http://www.w3.org/2000/svg" xmlns:xlink="http://www.w3.org/1999/xlink" version="1.1"><rect x="0" y="0" width="1920" height="1080" fill="#e4e8ea"></rect><defs><linearGradient id="grad1_0" x1="43.8%" y1="0%" x2="100%" y2="100%"><stop offset="14.444444444444446%" stop-color="#e4e8ea" stop-opacity="1"></stop><stop offset="85.55555555555554%" stop-color="#e4e8ea" stop-opacity="1"></stop></linearGradient></defs><defs><linearGradient id="grad2_0" x1="0%" y1="0%" x2="56.3%" y2="100%"><stop offset="14.444444444444446%" stop-color="#e4e8ea" stop-opacity="1"></stop><stop offset="85.55555555555554%" stop-color="#e4e8ea" stop-opacity="1"></stop></linearGradient></defs><g transform="translate(1920, 0)"><path d="M0 864C-89.2 851.1 -178.4 838.2 -264.2 813.2C-350 788.1 -432.5 750.9 -507.8 699C-583.2 647.1 -651.4 580.5 -691.7 502.6C-732 424.6 -744.4 335.3 -768.5 249.7C-792.5 164 -828.3 82 -864 0L0 0Z" fill="#006666"></path></g><g transform="translate(0, 1080)"><path d="M0 -864C93.2 -857.5 186.4 -851 265.1 -816C343.9 -781 408.1 -717.4 483.7 -665.8C559.4 -614.3 646.5 -574.8 699 -507.8C751.5 -440.9 769.5 -346.3 791.3 -257.1C813 -167.9 838.5 -83.9 864 0L0 0Z" fill="#006666"></path></g></svg>