<svg id="visual" viewBox="0 0 900 600" width="900" height="600" xmlns="http://www.w3.org/2000/svg" xmlns:xlink="http://www.w3.org/1999/xlink" version="1.1"><rect x="0" y="0" width="900" height="600" fill="#ffffff"></rect><path d="M0 418L113 393L225 440L338 414L450 390L563 399L675 424L788 448L900 405L900 601L788 601L675 601L563 601L450 601L338 601L225 601L113 601L0 601Z" fill="#0a8bf5"></path><path d="M0 416L113 478L225 460L338 453L450 424L563 459L675 437L788 420L900 435L900 601L788 601L675 601L563 601L450 601L338 601L225 601L113 601L0 601Z" fill="#176dcb"></path><path d="M0 464L113 493L225 478L338 508L450 496L563 456L675 489L788 474L900 520L900 601L788 601L675 601L563 601L450 601L338 601L225 601L113 601L0 601Z" fill="#1551a3"></path><path d="M0 549L113 525L225 524L338 541L450 499L563 537L675 526L788 524L900 510L900 601L788 601L675 601L563 601L450 601L338 601L225 601L113 601L0 601Z" fill="#0c367c"></path><path d="M0 538L113 579L225 578L338 577L450 572L563 550L675 548L788 555L900 566L900 601L788 601L675 601L563 601L450 601L338 601L225 601L113 601L0 601Z" fill="#001e58"></path></svg>