<svg id="visual" viewBox="0 0 1920 1080" width="1920" height="1080" xmlns="http://www.w3.org/2000/svg" xmlns:xlink="http://www.w3.org/1999/xlink" version="1.1"><path d="M0 152L29.2 155.7C58.3 159.3 116.7 166.7 174.8 152.3C233 138 291 102 349.2 103.8C407.3 105.7 465.7 145.3 523.8 161.5C582 177.7 640 170.3 698.2 163C756.3 155.7 814.7 148.3 872.8 139.3C931 130.3 989 119.7 1047.2 109C1105.3 98.3 1163.7 87.7 1221.8 100.3C1280 113 1338 149 1396.2 154.3C1454.3 159.7 1512.7 134.3 1570.8 119.8C1629 105.3 1687 101.7 1745.2 103.5C1803.3 105.3 1861.7 112.7 1890.8 116.3L1920 120L1920 0L1890.8 0C1861.7 0 1803.3 0 1745.2 0C1687 0 1629 0 1570.8 0C1512.7 0 1454.3 0 1396.2 0C1338 0 1280 0 1221.8 0C1163.7 0 1105.3 0 1047.2 0C989 0 931 0 872.8 0C814.7 0 756.3 0 698.2 0C640 0 582 0 523.8 0C465.7 0 407.3 0 349.2 0C291 0 233 0 174.8 0C116.7 0 58.3 0 29.2 0L0 0Z" fill="#6492eb"></path><path d="M0 368L29.2 351.8C58.3 335.7 116.7 303.3 174.8 287.2C233 271 291 271 349.2 276.3C407.3 281.7 465.7 292.3 523.8 305C582 317.7 640 332.3 698.2 337.8C756.3 343.3 814.7 339.7 872.8 334.2C931 328.7 989 321.3 1047.2 292.5C1105.3 263.7 1163.7 213.3 1221.8 220.5C1280 227.7 1338 292.3 1396.2 303.2C1454.3 314 1512.7 271 1570.8 240.5C1629 210 1687 192 1745.2 202.8C1803.3 213.7 1861.7 253.3 1890.8 273.2L1920 293L1920 118L1890.8 114.3C1861.7 110.7 1803.3 103.3 1745.2 101.5C1687 99.7 1629 103.3 1570.8 117.8C1512.7 132.3 1454.3 157.7 1396.2 152.3C1338 147 1280 111 1221.8 98.3C1163.7 85.7 1105.3 96.3 1047.2 107C989 117.7 931 128.3 872.8 137.3C814.7 146.3 756.3 153.7 698.2 161C640 168.3 582 175.7 523.8 159.5C465.7 143.3 407.3 103.7 349.2 101.8C291 100 233 136 174.8 150.3C116.7 164.7 58.3 157.3 29.2 153.7L0 150Z" fill="#447ce5"></path><path d="M0 660L29.2 631.2C58.3 602.3 116.7 544.7 174.8 510.5C233 476.3 291 465.7 349.2 465.7C407.3 465.7 465.7 476.3 523.8 488.8C582 501.3 640 515.7 698.2 535.5C756.3 555.3 814.7 580.7 872.8 573.5C931 566.3 989 526.7 1047.2 485.2C1105.3 443.7 1163.7 400.3 1221.8 427.3C1280 454.3 1338 551.7 1396.2 555.3C1454.3 559 1512.7 469 1570.8 449.2C1629 429.3 1687 479.7 1745.2 501.3C1803.3 523 1861.7 516 1890.8 512.5L1920 509L1920 291L1890.8 271.2C1861.7 251.3 1803.3 211.7 1745.2 200.8C1687 190 1629 208 1570.8 238.5C1512.7 269 1454.3 312 1396.2 301.2C1338 290.3 1280 225.7 1221.8 218.5C1163.7 211.3 1105.3 261.7 1047.2 290.5C989 319.3 931 326.7 872.8 332.2C814.7 337.7 756.3 341.3 698.2 335.8C640 330.3 582 315.7 523.8 303C465.7 290.3 407.3 279.7 349.2 274.3C291 269 233 269 174.8 285.2C116.7 301.3 58.3 333.7 29.2 349.8L0 366Z" fill="#1766dd"></path><path d="M0 822L29.2 814.8C58.3 807.7 116.7 793.3 174.8 759.2C233 725 291 671 349.2 660.2C407.3 649.3 465.7 681.7 523.8 697.8C582 714 640 714 698.2 733.8C756.3 753.7 814.7 793.3 872.8 787.8C931 782.3 989 731.7 1047.2 675.8C1105.3 620 1163.7 559 1221.8 575.3C1280 591.7 1338 685.3 1396.2 710.5C1454.3 735.7 1512.7 692.3 1570.8 679.7C1629 667 1687 685 1745.2 708.3C1803.3 731.7 1861.7 760.3 1890.8 774.7L1920 789L1920 507L1890.8 510.5C1861.7 514 1803.3 521 1745.2 499.3C1687 477.7 1629 427.3 1570.8 447.2C1512.7 467 1454.3 557 1396.2 553.3C1338 549.7 1280 452.3 1221.8 425.3C1163.7 398.3 1105.3 441.7 1047.2 483.2C989 524.7 931 564.3 872.8 571.5C814.7 578.7 756.3 553.3 698.2 533.5C640 513.7 582 499.3 523.8 486.8C465.7 474.3 407.3 463.7 349.2 463.7C291 463.7 233 474.3 174.8 508.5C116.7 542.7 58.3 600.3 29.2 629.2L0 658Z" fill="#0959bf"></path><path d="M0 1081L29.2 1081C58.3 1081 116.7 1081 174.8 1081C233 1081 291 1081 349.2 1081C407.3 1081 465.7 1081 523.8 1081C582 1081 640 1081 698.2 1081C756.3 1081 814.7 1081 872.8 1081C931 1081 989 1081 1047.2 1081C1105.3 1081 1163.7 1081 1221.8 1081C1280 1081 1338 1081 1396.2 1081C1454.3 1081 1512.7 1081 1570.8 1081C1629 1081 1687 1081 1745.2 1081C1803.3 1081 1861.7 1081 1890.8 1081L1920 1081L1920 787L1890.8 772.7C1861.7 758.3 1803.3 729.7 1745.2 706.3C1687 683 1629 665 1570.8 677.7C1512.7 690.3 1454.3 733.7 1396.2 708.5C1338 683.3 1280 589.7 1221.8 573.3C1163.7 557 1105.3 618 1047.2 673.8C989 729.7 931 780.3 872.8 785.8C814.7 791.3 756.3 751.7 698.2 731.8C640 712 582 712 523.8 695.8C465.7 679.7 407.3 647.3 349.2 658.2C291 669 233 723 174.8 757.2C116.7 791.3 58.3 805.7 29.2 812.8L0 820Z" fill="#014ca2"></path></svg>